<svg width="15" height="15" viewBox="0 0 15 15" fill="none" xmlns="http://www.w3.org/2000/svg">
<path fill-rule="evenodd" clip-rule="evenodd" d="M7.88268 9.47803C8.45166 9.14903 8.94871 8.70902 9.3443 8.18415C9.2168 7.98586 9.12609 7.76621 9.0765 7.53574L9.05787 7.44942C9.00443 7.20296 8.87858 6.97809 8.69646 6.80366C8.51433 6.62922 8.28424 6.51318 8.03571 6.47043C6.00317 6.11728 6.00317 3.19992 8.03571 2.8458C8.27576 2.80448 8.49879 2.69476 8.67801 2.5298C8.85724 2.36484 8.98505 2.15166 9.04609 1.91585C8.56814 1.39503 7.98326 0.983677 7.33151 0.709966C6.67976 0.436254 5.97655 0.306656 5.27005 0.330049C4.56355 0.353441 3.87045 0.529272 3.23823 0.845496C2.60602 1.16172 2.04963 1.61086 1.60717 2.16216C1.16472 2.71346 0.84666 3.35388 0.674783 4.03955C0.502905 4.72523 0.48127 5.43996 0.611361 6.13477C0.741452 6.82959 1.02019 7.48808 1.42849 8.06512C1.83679 8.64217 2.365 9.12415 2.97693 9.47803V10.6248C2.97693 10.8849 3.08028 11.1344 3.26424 11.3184C3.44821 11.5024 3.69772 11.6057 3.95788 11.6057H6.90075C7.16091 11.6057 7.41042 11.5024 7.59439 11.3184C7.77835 11.1344 7.8817 10.8849 7.8817 10.6248L7.88268 9.47803ZM2.97791 13.3224C2.97791 13.1273 3.05542 12.9401 3.1934 12.8022C3.33137 12.6642 3.5185 12.5867 3.71363 12.5867H7.14697C7.34209 12.5867 7.52922 12.6642 7.6672 12.8022C7.80517 12.9401 7.88268 13.1273 7.88268 13.3224C7.88268 13.5175 7.80517 13.7046 7.6672 13.8426C7.52922 13.9806 7.34209 14.0581 7.14697 14.0581H3.71363C3.5185 14.0581 3.33137 13.9806 3.1934 13.8426C3.05542 13.7046 2.97791 13.5175 2.97791 13.3224ZM10.1193 2.00905C10.2988 1.18897 11.4661 1.18406 11.6525 2.00218L11.6613 2.04142L11.679 2.11793C11.7849 2.56602 12.0198 2.97322 12.3547 3.28915C12.6897 3.60508 13.1099 3.81587 13.5634 3.89542C14.4188 4.04453 14.4188 5.27268 13.5634 5.42179C13.1073 5.5017 12.6848 5.71434 12.349 6.03312C12.0131 6.3519 11.7787 6.76266 11.6751 7.21399L11.6525 7.31405C11.4661 8.13314 10.2978 8.12824 10.1173 7.30718L10.0987 7.22184C9.99976 6.76877 9.76818 6.35542 9.43345 6.03448C9.09871 5.71354 8.67598 5.49957 8.21915 5.41982C7.36474 5.2717 7.36474 4.04551 8.21915 3.8964C8.67438 3.81724 9.09588 3.60477 9.43028 3.28591C9.76469 2.96705 9.99695 2.55613 10.0977 2.10518L10.1124 2.04142L10.1193 2.00905Z" fill="white"/>
</svg>
