<svg width="48" height="48" viewBox="0 0 48 48" fill="none" xmlns="http://www.w3.org/2000/svg">
<rect x="0.434286" y="0.434286" width="47.1314" height="47.1314" rx="9.98857" stroke="white" stroke-opacity="0.34" stroke-width="0.868571"/>
<g clip-path="url(#clip0_0_130)">
<mask id="mask0_0_130" style="mask-type:luminance" maskUnits="userSpaceOnUse" x="13" y="13" width="22" height="22">
<path d="M34.4229 13.5771H13.5771V34.4229H34.4229V13.5771Z" fill="white"/>
</mask>
<g mask="url(#mask0_0_130)">
<path fill-rule="evenodd" clip-rule="evenodd" d="M28.7033 26.069C28.4445 25.9396 27.1755 25.3159 26.9393 25.2291C26.703 25.1431 26.531 25.1005 26.3582 25.3593C26.1862 25.6164 25.692 26.1984 25.5417 26.3703C25.3906 26.5432 25.2403 26.564 24.9824 26.4355C24.7243 26.3053 23.8923 26.0334 22.9065 25.1544C22.1395 24.4699 21.621 23.6248 21.4707 23.366C21.3205 23.108 21.4542 22.9681 21.5836 22.8396C21.7 22.7241 21.8416 22.5382 21.971 22.388C22.1004 22.2368 22.143 22.1291 22.229 21.9563C22.3158 21.7843 22.2724 21.634 22.2073 21.5046C22.143 21.3752 21.6271 20.1045 21.4117 19.5877C21.2023 19.0848 20.9895 19.1534 20.8315 19.1447C20.6803 19.1378 20.5083 19.136 20.3364 19.136C20.1644 19.136 19.8847 19.2003 19.6485 19.4591C19.4113 19.7171 18.7451 20.3416 18.7451 21.6123C18.7451 22.8822 19.6693 24.1095 19.7987 24.2823C19.9281 24.4543 21.6184 27.0618 24.2076 28.1796C24.8243 28.4454 25.3046 28.6044 25.679 28.7225C26.2974 28.9196 26.8602 28.8919 27.305 28.825C27.8 28.7511 28.8319 28.2004 29.0473 27.5977C29.2618 26.9949 29.2618 26.4781 29.1976 26.3703C29.1332 26.2627 28.9622 26.1984 28.7033 26.069ZM23.9939 32.499H23.9905C22.4526 32.4992 20.943 32.0859 19.6198 31.3021L19.3071 31.1163L16.0569 31.9691L16.9246 28.8006L16.7205 28.4758C15.8607 27.1072 15.4057 25.5233 15.4081 23.9071C15.4098 19.1734 19.2611 15.3221 23.9974 15.3221C26.2904 15.3221 28.4462 16.2168 30.067 17.8393C30.8664 18.6354 31.5 19.5821 31.9312 20.6247C32.3623 21.6673 32.5825 22.785 32.5789 23.9132C32.5771 28.6469 28.7259 32.499 23.9939 32.499ZM31.3004 16.6068C30.3434 15.6434 29.2047 14.8796 27.9504 14.3596C26.696 13.8395 25.3509 13.5736 23.993 13.5772C18.3004 13.5772 13.6657 18.211 13.664 23.9062C13.6614 25.7187 14.1368 27.4998 15.0424 29.0699L13.5771 34.4229L19.0526 32.9863C20.5673 33.8115 22.2647 34.2439 23.9896 34.2439H23.9939C29.6865 34.2439 34.3213 29.6101 34.323 23.9141C34.3272 22.5567 34.0622 21.212 33.5434 19.9577C33.0246 18.7035 32.2622 17.5645 31.3004 16.6068Z" fill="white"/>
</g>
</g>
<defs>
<clipPath id="clip0_0_130">
<rect width="20.8457" height="20.8457" fill="white" transform="translate(13.5771 13.5771)"/>
</clipPath>
</defs>
</svg>
