<svg width="51" height="52" viewBox="0 0 51 52" fill="none" xmlns="http://www.w3.org/2000/svg">
<path d="M31.9328 5.29639V8.47424C31.9328 11.4699 31.9328 12.9677 32.865 13.8978C33.7929 14.83 35.2907 14.83 38.2885 14.83H41.4664" stroke="white" stroke-width="3.17786" stroke-linecap="round" stroke-linejoin="round"/>
<path d="M17.1025 23.3042H34.0511M17.1025 29.6599H34.0511M17.1025 36.0156H25.937M8.62827 33.8971V16.9485C8.62827 10.9572 8.62827 7.95939 10.4905 6.09928C12.3506 4.23706 15.3484 4.23706 21.3397 4.23706H30.1784C31.0427 4.23706 31.4771 4.23706 31.8669 4.39807C32.2546 4.55908 32.5618 4.86416 33.174 5.47854L41.2839 13.5884C41.8983 14.2028 42.2034 14.5079 42.3644 14.8977C42.5254 15.2854 42.5254 15.7197 42.5254 16.5841V33.8971C42.5254 39.8884 42.5254 42.8861 40.6632 44.7463C38.8031 46.6085 35.8053 46.6085 29.814 46.6085H21.3397C15.3484 46.6085 12.3506 46.6085 10.4905 44.7463C8.62827 42.8861 8.62827 39.8884 8.62827 33.8971Z" stroke="white" stroke-width="3.17786" stroke-linecap="round" stroke-linejoin="round"/>
</svg>
