<svg width="52" height="52" viewBox="0 0 52 52" fill="none" xmlns="http://www.w3.org/2000/svg">
<path d="M25.7715 34.2372L21.7628 30.0464L35.0618 18.3884L37.4314 20.9382L25.7715 34.2372ZM43.0773 46.0792C47.2681 41.8884 50 36.0585 50 29.5C50 16.5672 39.4348 6 26.5 6C13.5652 6 3 16.5672 3 29.5C3 36.0604 5.54975 41.8884 9.92271 46.0792L13.201 42.799C9.74058 39.3387 7.73721 34.7836 7.73721 29.502C7.73386 27.0369 8.21686 24.5953 9.15854 22.3172C10.1002 20.0391 11.4821 17.9691 13.225 16.2258C14.9679 14.4825 17.0376 13.1002 19.3155 12.1581C21.5935 11.2159 24.0349 10.7324 26.5 10.7352C28.9648 10.7324 31.4059 11.2158 33.6836 12.1577C35.9612 13.0996 38.0308 14.4816 39.7736 16.2244C41.5165 17.9673 42.8984 20.0368 43.8403 22.3145C44.7822 24.5922 45.2656 27.0333 45.2628 29.498C45.2628 34.5995 43.0773 39.3367 39.799 42.7971L43.0773 46.0792Z" fill="white"/>
</svg>
