<svg width="51" height="51" viewBox="0 0 51 51" fill="none" xmlns="http://www.w3.org/2000/svg">
<g clip-path="url(#clip0_0_596)">
<path d="M17.7518 4.67847H33.4041C33.8306 4.67847 34.1979 4.67847 34.5296 4.71875C35.7184 4.86681 36.8226 5.41091 37.6642 6.26333C38.5059 7.11574 39.036 8.22678 39.1689 9.4173H41.0787C41.581 9.41256 42.6828 9.40308 43.5926 10.012C44.7702 10.7963 45.1257 12.1445 45.1257 13.5638C45.1257 20.0228 41.6829 24.3351 37.2876 26.7306C34.8353 31.1946 30.305 34.2962 25.578 34.2962C21.9788 34.2962 18.5645 32.3485 16.1074 29.6545C15.291 28.7638 14.5743 27.7865 13.9702 26.7401C9.57729 24.3565 6.03027 20.0489 6.03027 13.5638C6.03027 12.1421 6.38569 10.7963 7.56092 10.012C8.47314 9.40308 9.57492 9.41256 10.0772 9.4173H11.987L11.9941 9.35096C12.1406 8.17345 12.6757 7.07847 13.5148 6.23943C14.3538 5.40039 15.4488 4.86524 16.6263 4.71875C16.958 4.67847 17.3253 4.67847 17.7518 4.67847ZM15.5079 11.1944V11.2015L15.4842 19.4873V19.4897C15.4842 21.198 15.9723 22.9443 16.8182 24.5437L16.8514 24.6029C17.3608 25.5554 17.9982 26.451 18.7351 27.2566C20.7301 29.446 23.2559 30.7421 25.5803 30.7421C28.9496 30.7421 32.5014 28.3063 34.3472 24.7143C35.1857 23.0994 35.6244 21.3069 35.6267 19.4873L35.6219 19.4826L35.6504 10.5712C35.6504 9.99781 35.6456 9.87223 35.6361 9.7893C35.5871 9.39732 35.4088 9.03287 35.1294 8.75353C34.8501 8.47419 34.4856 8.29589 34.0936 8.24681C33.8333 8.23131 33.5725 8.22657 33.3117 8.23259H17.8466C17.2708 8.23259 17.1476 8.23496 17.0646 8.24681C16.6727 8.29589 16.3082 8.47419 16.0289 8.75353C15.7495 9.03287 15.5712 9.39732 15.5222 9.7893C15.5067 10.0496 15.5019 10.3105 15.5079 10.5712V11.1944ZM39.1974 12.9714L39.176 19.4873V19.4897M39.1216 20.7668C40.6332 18.9471 41.5739 16.5729 41.5739 13.5638C41.5739 13.2842 41.5502 13.0994 41.5289 12.9833C41.3467 12.9723 41.1641 12.9683 40.9815 12.9714H39.1974M11.9775 20.6294C11.9418 20.2498 11.9244 19.8686 11.9254 19.4873V19.4826L11.9467 12.9714H10.1768C9.91849 12.9714 9.755 12.9714 9.62942 12.9833C9.59612 13.1749 9.58104 13.3693 9.5844 13.5638C9.5844 16.4947 10.5037 18.8239 11.9775 20.6294ZM25.578 35.4809C26.0493 35.4809 26.5013 35.6681 26.8345 36.0014C27.1678 36.3346 27.355 36.7866 27.355 37.2579V42.5891H35.0556C35.5269 42.5891 35.9789 42.7764 36.3122 43.1096C36.6455 43.4429 36.8327 43.8949 36.8327 44.3662C36.8327 44.8375 36.6455 45.2895 36.3122 45.6228C35.9789 45.956 35.5269 46.1433 35.0556 46.1433H16.1003C15.629 46.1433 15.177 45.956 14.8437 45.6228C14.5105 45.2895 14.3232 44.8375 14.3232 44.3662C14.3232 43.8949 14.5105 43.4429 14.8437 43.1096C15.177 42.7764 15.629 42.5891 16.1003 42.5891H23.8009V37.2579C23.8009 36.7866 23.9881 36.3346 24.3214 36.0014C24.6547 35.6681 25.1067 35.4809 25.578 35.4809Z" fill="white"/>
<path d="M25.0323 12.5091C25.0778 12.4023 25.1538 12.3112 25.2507 12.2471C25.3475 12.1831 25.4611 12.1489 25.5773 12.1489C25.6934 12.1489 25.807 12.1831 25.9039 12.2471C26.0008 12.3112 26.0767 12.4023 26.1222 12.5091L27.3188 15.3809C27.3605 15.4811 27.429 15.5679 27.5168 15.6318C27.6045 15.6958 27.7082 15.7344 27.8164 15.7434L30.9179 15.9922C31.0346 16.0014 31.1459 16.045 31.2378 16.1174C31.3298 16.1899 31.3982 16.2879 31.4344 16.3992C31.4707 16.5105 31.4731 16.63 31.4415 16.7427C31.4099 16.8554 31.3456 16.9562 31.2568 17.0323L28.8945 19.0558C28.8119 19.1269 28.7505 19.2193 28.7171 19.323C28.6836 19.4267 28.6794 19.5375 28.7049 19.6434L29.4252 22.6668C29.453 22.7809 29.4462 22.9007 29.4058 23.0109C29.3653 23.1212 29.293 23.2169 29.1981 23.286C29.1031 23.355 28.9897 23.3943 28.8724 23.3988C28.7551 23.4033 28.639 23.3729 28.539 23.3113L25.8853 21.6906C25.7925 21.6341 25.6859 21.6042 25.5773 21.6042C25.4686 21.6042 25.3621 21.6341 25.2693 21.6906L22.6155 23.3113C22.5155 23.3729 22.3995 23.4033 22.2821 23.3988C22.1648 23.3943 22.0515 23.355 21.9565 23.286C21.8615 23.2169 21.7892 23.1212 21.7488 23.0109C21.7083 22.9007 21.7016 22.7809 21.7293 22.6668L22.452 19.6434C22.4775 19.5375 22.4733 19.4267 22.4399 19.323C22.4064 19.2193 22.345 19.1269 22.2625 19.0558L19.8978 17.0323C19.8081 16.9563 19.7431 16.8554 19.711 16.7423C19.6789 16.6293 19.6812 16.5092 19.7175 16.3974C19.7538 16.2856 19.8226 16.1872 19.915 16.1146C20.0075 16.042 20.1194 15.9986 20.2366 15.9898L23.3358 15.7434C23.4444 15.7348 23.5486 15.6964 23.6368 15.6324C23.725 15.5685 23.7938 15.4814 23.8358 15.3809L25.0323 12.5091Z" fill="white"/>
</g>
<defs>
<clipPath id="clip0_0_596">
<rect width="40" height="42" fill="white" transform="translate(6 4.64404)"/>
</clipPath>
</defs>
</svg>
