<svg width="49" height="50" viewBox="0 0 49 50" fill="none" xmlns="http://www.w3.org/2000/svg">
<ellipse cx="24.3056" cy="25.0001" rx="24.3056" ry="25.0001" fill="black"/>
<path d="M18.9575 16.9478C18.8305 16.9465 18.7046 16.9706 18.587 17.0185C18.4694 17.0664 18.3625 17.1372 18.2726 17.2269C18.1826 17.3165 18.1114 17.4231 18.0631 17.5406C18.0148 17.658 17.9903 17.7839 17.9911 17.9109C17.9919 18.0378 18.018 18.1634 18.0678 18.2802C18.1176 18.397 18.1902 18.5027 18.2813 18.5912C18.3723 18.6797 18.4801 18.7492 18.5983 18.7956C18.7165 18.842 18.8427 18.8644 18.9697 18.8616L28.894 18.8027L16.9327 30.7639C16.7533 30.9434 16.6524 31.1868 16.6524 31.4406C16.6524 31.6945 16.7533 31.9379 16.9327 32.1174C17.1122 32.2968 17.3556 32.3977 17.6095 32.3977C17.8633 32.3977 18.1067 32.2968 18.2862 32.1174L30.2461 20.1575L30.1865 30.0784C30.189 30.3295 30.2901 30.5696 30.4679 30.7469C30.6458 30.9242 30.8863 31.0244 31.1374 31.026C31.3886 31.0276 31.6303 30.9304 31.8104 30.7554C31.9905 30.5804 32.0946 30.3416 32.1003 30.0906L32.1734 18.0786C32.1743 17.9203 32.1438 17.7634 32.0837 17.617C32.0235 17.4707 31.9349 17.3376 31.823 17.2257C31.7111 17.1138 31.5781 17.0252 31.4317 16.9651C31.2853 16.9049 31.1284 16.8744 30.9702 16.8754L18.9575 16.9478Z" fill="white"/>
</svg>
