<svg width="49" height="51" viewBox="0 0 49 51" fill="none" xmlns="http://www.w3.org/2000/svg">
<ellipse cx="24.2283" cy="25.3449" rx="24.169" ry="24.8595" fill="white"/>
<path d="M18.9099 17.3381C18.7837 17.3369 18.6584 17.3608 18.5415 17.4084C18.4246 17.4561 18.3183 17.5265 18.2288 17.6156C18.1394 17.7048 18.0686 17.8108 18.0205 17.9276C17.9725 18.0444 17.9482 18.1695 17.949 18.2958C17.9498 18.4221 17.9757 18.5469 18.0252 18.6631C18.0748 18.7792 18.1469 18.8843 18.2375 18.9723C18.328 19.0603 18.4352 19.1294 18.5527 19.1755C18.6703 19.2217 18.7958 19.244 18.922 19.2412L28.7905 19.1826L16.8965 31.0766C16.7181 31.2551 16.6178 31.4971 16.6178 31.7495C16.6178 32.0019 16.7181 32.244 16.8965 32.4225C17.075 32.6009 17.3171 32.7012 17.5695 32.7012C17.8219 32.7012 18.0639 32.6009 18.2424 32.4225L30.135 20.5298L30.0758 30.3949C30.0783 30.6446 30.1788 30.8834 30.3557 31.0597C30.5326 31.236 30.7717 31.3357 31.0214 31.3372C31.2711 31.3388 31.5115 31.2422 31.6906 31.0682C31.8697 30.8942 31.9732 30.6567 31.9789 30.407L32.0515 18.4626C32.0525 18.3052 32.0221 18.1492 31.9623 18.0036C31.9025 17.8581 31.8144 17.7258 31.7031 17.6145C31.5919 17.5032 31.4596 17.4151 31.314 17.3553C31.1684 17.2955 31.0124 17.2652 30.8551 17.2661L18.9099 17.3381Z" fill="black"/>
</svg>
