<svg width="159" height="49" viewBox="0 0 159 49" fill="none" xmlns="http://www.w3.org/2000/svg">
<g clip-path="url(#clip0_0_108)">
<g clip-path="url(#clip1_0_108)">
<g clip-path="url(#clip2_0_108)">
<path d="M17.0241 27.0183C16.0527 26.4095 15.0812 26.2956 10.1126 26.1376C6.92872 26.0469 5.68539 25.9795 5.2787 25.8657C4.8046 25.7541 4.60009 25.459 4.60009 24.8942C4.60009 23.788 4.91616 23.6974 8.80185 23.6974C12.0531 23.6974 12.6178 23.7415 13.0036 23.967C13.3429 24.1715 13.4103 24.3737 13.4545 25.2103H17.8816C17.9049 24.9175 17.9049 24.6014 17.9049 24.5108C17.9049 22.7261 17.5423 21.7779 16.6406 21.169C15.5786 20.4462 13.9983 20.244 9.61524 20.244C6.00145 20.244 3.92382 20.3347 3.04303 20.5159C0.965386 20.9668 0.152 22.2543 0.152 25.1243C0.152 28.4453 1.19081 29.3935 4.91848 29.5073L6.13857 29.5538L8.57875 29.6654L12.1925 29.8002C13.6613 29.8234 14.0006 30.0488 14.0006 30.9528C14.0006 32.2845 14.0006 32.2845 9.07608 32.2845C5.84575 32.2845 5.34842 32.2403 4.9208 31.9684C4.56059 31.743 4.46995 31.4502 4.46995 30.5461H0.0195312V31.2689C0.0195312 33.3465 0.35883 34.2273 1.39765 34.8827C2.45971 35.5613 4.28868 35.7635 8.96453 35.7635C13.4591 35.7635 15.3555 35.6519 16.2595 35.3126C17.8189 34.7247 18.451 33.4372 18.451 30.8181C18.4464 28.7125 18.0629 27.697 17.0241 27.0183Z" fill="white"/>
<path d="M19.1712 24.3086H25.8804V35.5334H30.6911V24.3086H37.4004V20.4694H19.1712V24.3086Z" fill="white"/>
<path d="M57.6403 21.2829C56.4876 20.4021 55.0886 20.244 48.7859 20.244C42.4833 20.244 41.0843 20.4021 39.9316 21.2829C38.7789 22.1636 38.4419 23.6997 38.4419 27.9015C38.4419 32.3286 38.758 33.8183 39.9316 34.7223C41.0843 35.6031 42.4833 35.7612 48.8301 35.7612C55.063 35.7612 56.4876 35.6031 57.638 34.7223C58.7907 33.8416 59.13 32.3286 59.13 27.9921C59.13 23.6765 58.7907 22.1636 57.6403 21.2829ZM53.8685 31.3107C53.2596 31.7616 52.5136 31.8522 48.8301 31.8522C45.035 31.8522 44.3123 31.7848 43.7034 31.3107C43.1619 30.8808 43.0248 30.2719 43.0248 28.3965C43.0248 26.4769 43.1154 25.6193 43.3873 25.0987C43.8382 24.218 44.2681 24.1506 48.7859 24.1506C52.9877 24.1506 53.485 24.218 54.0033 24.8292C54.41 25.3265 54.5448 26.184 54.5448 28.4197C54.5448 30.2487 54.3867 30.904 53.8685 31.3107Z" fill="white"/>
<path d="M75.2398 29.7304C75.2165 31.9661 75.1491 31.9893 70.1131 31.9893C65.2792 31.9893 65.2118 31.9429 65.2118 28.0804C65.2118 25.7983 65.3931 24.9175 65.9346 24.4666C66.3854 24.1041 67.2221 24.0158 70.0898 24.0158C72.9809 24.0158 74.3148 24.1506 74.6518 24.4457C74.9237 24.6711 74.9679 24.8756 75.0144 25.868H79.5996V25.122C79.5996 22.7051 79.1487 21.5989 77.8612 20.9436C76.8224 20.4021 75.4211 20.244 71.4006 20.244C63.5176 20.244 61.8699 20.6275 61.0565 22.661C60.7172 23.4975 60.6266 24.7385 60.6266 28.1036C60.6266 30.0233 60.6708 31.2666 60.7381 31.9429C60.9194 33.479 61.3703 34.3133 62.3649 34.8804C63.585 35.5799 65.4814 35.7612 71.3773 35.7612C74.7192 35.7612 76.3692 35.6264 77.5893 35.2406C79.2603 34.6991 79.8924 33.5929 79.8924 31.1527C79.8924 30.9273 79.8691 30.588 79.8459 29.7304H75.2398Z" fill="white"/>
<path d="M109.279 13.0512L108.568 12.4911L88.5449 25.9354H86.0396V20.4694H81.4544V35.5334H86.0396V29.7746H88.5449L95.3007 35.5334H102.256L92.814 27.855L109.279 13.0512Z" fill="#33C71F"/>
<path d="M124.303 31.7381H123.446L120.015 20.4691H114.48L111.068 31.7381H110.231L106.262 20.5598L102.739 23.5809L107.182 35.5331H114.296L117.278 24.4873L120.306 35.5331H127.378L133.225 20.4691H128.368L124.303 31.7381Z" fill="white"/>
<path d="M138.81 20.4692H133.999V35.5355H138.81V20.4692Z" fill="white"/>
<path d="M147.597 31.9194L158.62 23.9249V20.4692H140.574V24.241L151.211 24.0829L140.325 32.01V35.5332H158.959V31.7614L147.597 31.9194Z" fill="white"/>
<path d="M111.722 19.8558L111.097 13.5462C110.964 13.5462 110.83 13.5392 110.697 13.523L109.352 19.721C110.135 19.8581 110.93 19.9046 111.722 19.8558Z" fill="#33C71F"/>
<path d="M107.815 8.44962L102.337 5.25415C101.961 5.95599 101.673 6.70199 101.475 7.47587L107.673 8.81449C107.715 8.68899 107.762 8.56814 107.815 8.44962Z" fill="#33C71F"/>
<path d="M108.849 7.12039C108.996 7.00187 109.154 6.89497 109.319 6.79968L106.758 0.999039C106.023 1.35693 105.338 1.80313 104.71 2.33067L106.96 4.74296L108.849 7.12039Z" fill="#33C71F"/>
<path d="M111.501 6.35341L112.837 0.153042C112.054 0.0136037 111.259 -0.0305518 110.466 0.0205757L111.103 6.33017C111.236 6.33017 111.368 6.33714 111.501 6.35341Z" fill="#33C71F"/>
<path d="M107.568 10.6644L101.259 11.2965C101.368 12.0866 101.57 12.8582 101.863 13.5995L107.668 11.0455C107.629 10.92 107.594 10.7945 107.568 10.6644Z" fill="#33C71F"/>
<path d="M118.257 3.04166C117.704 2.46532 117.085 1.961 116.414 1.53804L113.225 7.02032C113.332 7.09701 113.434 7.18067 113.53 7.27131L118.257 3.04166Z" fill="#33C71F"/>
<path d="M114.392 11.4197L119.876 14.6036C120.251 13.9017 120.537 13.158 120.734 12.3818L114.534 11.0525C114.492 11.178 114.445 11.3012 114.392 11.4197Z" fill="#33C71F"/>
<path d="M114.633 9.20261L120.943 8.56352C120.834 7.77336 120.629 7.0018 120.334 6.26045L114.533 8.8238C114.573 8.94697 114.608 9.07479 114.633 9.20261Z" fill="#33C71F"/>
<path d="M117.487 17.5503L115.366 15.2449L113.272 12.8186C113.146 12.9139 113.014 12.9999 112.879 13.0766L115.428 18.8842C116.167 18.5263 116.858 18.0801 117.487 17.5503Z" fill="#33C71F"/>
</g>
</g>
</g>
<defs>
<clipPath id="clip0_0_108">
<rect width="159" height="35.7893" fill="white"/>
</clipPath>
<clipPath id="clip1_0_108">
<rect width="159" height="35.7893" fill="white"/>
</clipPath>
<clipPath id="clip2_0_108">
<rect width="158.96" height="35.7893" fill="white" transform="translate(0.0195312)"/>
</clipPath>
</defs>
</svg>
