<svg width="103" height="27" viewBox="0 0 103 27" fill="none" xmlns="http://www.w3.org/2000/svg">
<g clip-path="url(#clip0_8_23)">
<path fill-rule="evenodd" clip-rule="evenodd" d="M7.85952 20.3424C12.4135 20.3424 14.5566 18.2176 14.5566 15.1966C14.5566 12.7139 13.1573 10.8584 8.2756 9.96207C4.07783 9.24332 3.18584 8.138 3.18584 6.5516C3.18584 4.75616 4.67344 3.65083 7.05588 3.65083C10.1223 3.65083 11.3135 5.26587 11.9091 8.04636L14.0237 7.62829C13.3084 4.24931 11.493 1.73513 7.14707 1.73513C3.24569 1.73799 1.01144 3.71383 1.01144 6.61459C1.01144 9.18605 2.61873 11.0416 7.50045 11.8778C11.1026 12.4763 12.3822 13.404 12.3822 15.2882C12.3822 17.1725 10.8946 18.398 7.94787 18.398C4.52525 18.398 2.59023 16.4852 2.08296 13.3725L-0.000244141 13.7906C0.475674 17.559 2.88661 20.2823 7.85952 20.3424ZM68.2612 20.5228C71.6838 20.5228 73.7385 18.819 74.4538 15.9755L72.6071 15.4372C72.0999 17.2326 70.9998 18.6672 68.2612 18.6672C65.2831 18.6672 63.5276 16.9033 63.2911 13.8823H74.4823C74.5108 13.3153 74.5422 12.7769 74.5422 12.4161C74.5422 8.55894 72.2509 5.95598 68.2013 5.95598C64.1518 5.95598 61.2364 8.70784 61.2364 13.2838C61.2364 17.8597 63.9751 20.5228 68.2612 20.5228ZM63.351 12.1784C63.6787 9.27768 65.4342 7.78292 68.1443 7.78292C71.0027 7.78292 72.4618 9.39795 72.61 12.1784H63.3538H63.351ZM49.2131 1.67786H51.2678V12.2071H51.416L58.1444 6.10488H60.7348V6.16502L53.086 13.0146L61.302 19.9529V20.0131H58.6516L51.4188 13.8508H51.2706V20.0131H49.2159V1.67786H49.2131ZM40.2504 19.8355C39.1191 22.4671 38.076 22.8566 36.4402 22.8566C35.8446 22.8566 35.3089 22.7678 34.6848 22.6475L34.3884 24.6205C34.9526 24.7093 35.5482 24.8009 36.4117 24.8009C39.0621 24.8009 40.7292 23.4551 42.1285 20.1935L48.1415 6.10488H45.9386L44.0321 11.0703C43.3168 12.8943 42.2168 15.5861 41.3533 17.8597C40.4015 15.6748 39.2102 12.8342 38.4664 11.0101L36.4431 6.10488H34.1518L40.2533 19.8327L40.2504 19.8355ZM27.8652 6.10488H25.8105V20.0131H27.8652V12.3846C27.8652 9.48386 29.1761 8.34703 31.9432 8.34703H33.0746V6.10488H32.1228C29.8315 6.10488 28.4323 7.30184 27.925 10.1425H27.8652V6.10488ZM15.6309 7.93182H17.8623V15.9469C17.8623 18.5498 19.1134 20.3424 21.8806 20.3424C23.0404 20.3424 23.7842 20.162 24.7389 19.8928L24.4425 18.0086C23.6389 18.2491 23.0433 18.3665 22.2396 18.3665C20.5725 18.3665 19.9171 17.4703 19.9171 15.7636V7.92609H24.5907V6.10202H19.9171V2.12743H17.8623V6.10488H15.6309V7.92896V7.93182Z" fill="white"/>
<path fill-rule="evenodd" clip-rule="evenodd" d="M78.7371 24.3222H82.3735L84.8984 19.2165L76.064 1.57141L75.2946 0.0336914H77.0044H83.0916H83.7328L84.0292 0.614989L87.2267 6.89472L85.2318 10.9982L84.8756 6.95486L82.4504 2.15557H78.7143L86.0697 16.8484L94.0862 0.626444L94.3769 0.0336914H95.0295H101.006H102.693L101.952 1.55709L97.3122 11.0869L96.1266 8.71593L99.3184 2.15557H95.6821L93.2284 7.11522L102.068 24.7661L102.838 26.3038H101.128H95.038H94.3968L94.1033 25.7225L90.92 19.4256L92.8978 15.3336L93.2939 19.4513L95.6792 24.1819H99.4182L92.06 9.48623L83.9694 25.8513L83.6787 26.4441H83.0261H77.05H75.3629L76.1039 24.9207L80.7434 15.3908L81.9289 17.7618L78.7371 24.3222Z" fill="#2F6EFF"/>
</g>
<defs>
<clipPath id="clip0_8_23">
<rect width="103.001" height="26.2838" fill="white" transform="translate(-0.000244141 0.0339355)"/>
</clipPath>
</defs>
</svg>
