<svg width="40" height="40" viewBox="0 0 40 40" fill="none" xmlns="http://www.w3.org/2000/svg">
<rect x="0.5" y="0.5" width="39" height="39" rx="7.5" stroke="white"/>
<path d="M12.1875 13.375V16.9375H30V18.125H12.1875V28.8125H11V12.1875H30V13.375H12.1875ZM13.375 19.3125H14.5625V20.5H13.375V19.3125ZM15.75 19.3125H16.9375V20.5H15.75V19.3125ZM18.125 19.3125H19.3125V20.5H18.125V19.3125ZM20.5 19.3125H21.6875V20.5H20.5V19.3125ZM22.875 19.3125H24.0625V20.5H22.875V19.3125ZM25.25 19.3125H26.4375V20.5H25.25V19.3125ZM27.625 19.3125H28.8125V20.5H27.625V19.3125ZM13.375 24.0625H14.5625V25.25H13.375V24.0625ZM15.75 24.0625H16.9375V25.25H15.75V24.0625ZM18.125 24.0625H19.3125V25.25H18.125V24.0625ZM20.5 24.0625H21.6875V25.25H20.5V24.0625ZM22.875 24.0625H24.0625V25.25H22.875V24.0625ZM25.25 24.0625H26.4375V25.25H25.25V24.0625ZM27.625 24.0625H28.8125V25.25H27.625V24.0625ZM13.375 21.6875H14.5625V22.875H13.375V21.6875ZM15.75 21.6875H16.9375V22.875H15.75V21.6875ZM18.125 21.6875H19.3125V22.875H18.125V21.6875ZM20.5 21.6875H21.6875V22.875H20.5V21.6875ZM22.875 21.6875H24.0625V22.875H22.875V21.6875ZM25.25 21.6875H26.4375V22.875H25.25V21.6875ZM27.625 21.6875H28.8125V22.875H27.625V21.6875ZM13.375 26.4375H14.5625V27.625H13.375V26.4375ZM15.75 26.4375H16.9375V27.625H15.75V26.4375ZM18.125 26.4375H19.3125V27.625H18.125V26.4375ZM20.5 26.4375H21.6875V27.625H20.5V26.4375ZM22.875 26.4375H24.0625V27.625H22.875V26.4375Z" fill="white"/>
</svg>
