<svg width="40" height="40" viewBox="0 0 40 40" fill="none" xmlns="http://www.w3.org/2000/svg">
<rect x="0.5" y="0.5" width="39" height="39" rx="7.5" stroke="white"/>
<path d="M15.5 24C15.8978 24 16.2794 23.842 16.5607 23.5607C16.842 23.2794 17 22.8978 17 22.5C17.0038 22.4501 17.0038 22.3999 17 22.35L19.79 19.56H20.25L21.86 21.17V21.25C21.86 21.6478 22.018 22.0294 22.2993 22.3107C22.5806 22.592 22.9622 22.75 23.36 22.75C23.7578 22.75 24.1394 22.592 24.4207 22.3107C24.702 22.0294 24.86 21.6478 24.86 21.25V21.17L28.5 17.5C28.7967 17.5 29.0867 17.412 29.3334 17.2472C29.58 17.0824 29.7723 16.8481 29.8858 16.574C29.9993 16.2999 30.0291 15.9983 29.9712 15.7074C29.9133 15.4164 29.7704 15.1491 29.5607 14.9393C29.3509 14.7296 29.0836 14.5867 28.7926 14.5288C28.5017 14.4709 28.2001 14.5006 27.926 14.6142C27.6519 14.7277 27.4176 14.92 27.2528 15.1666C27.088 15.4133 27 15.7033 27 16C26.9962 16.0499 26.9962 16.1001 27 16.15L23.39 19.76H23.23L21.5 18C21.5 17.6022 21.342 17.2206 21.0607 16.9393C20.7794 16.658 20.3978 16.5 20 16.5C19.6022 16.5 19.2206 16.658 18.9393 16.9393C18.658 17.2206 18.5 17.6022 18.5 18L15.5 21C15.1022 21 14.7206 21.158 14.4393 21.4393C14.158 21.7206 14 22.1022 14 22.5C14 22.8978 14.158 23.2794 14.4393 23.5607C14.7206 23.842 15.1022 24 15.5 24ZM29 28H12V11C12 10.7348 11.8946 10.4804 11.7071 10.2929C11.5196 10.1054 11.2652 10 11 10C10.7348 10 10.4804 10.1054 10.2929 10.2929C10.1054 10.4804 10 10.7348 10 11V29C10 29.2652 10.1054 29.5196 10.2929 29.7071C10.4804 29.8946 10.7348 30 11 30H29C29.2652 30 29.5196 29.8946 29.7071 29.7071C29.8946 29.5196 30 29.2652 30 29C30 28.7348 29.8946 28.4804 29.7071 28.2929C29.5196 28.1054 29.2652 28 29 28Z" fill="white"/>
</svg>
