<svg width="40" height="40" viewBox="0 0 40 40" fill="none" xmlns="http://www.w3.org/2000/svg">
<rect x="0.5" y="0.5" width="39" height="39" rx="7.5" stroke="white"/>
<path fill-rule="evenodd" clip-rule="evenodd" d="M30.775 16C30.9245 16.6562 31 17.327 31 18H22V9C24.0394 8.99999 26.0183 9.6926 27.6125 10.9644C29.2068 12.2361 30.3218 14.0116 30.775 16ZM28.708 16C28.3759 14.8861 27.7715 13.8724 26.9496 13.0504C26.1276 12.2285 25.1139 11.6241 24 11.292V16H28.708Z" fill="white"/>
<path fill-rule="evenodd" clip-rule="evenodd" d="M9 22C8.99999 20.6482 9.30452 19.3137 9.89097 18.0957C10.4774 16.8777 11.3307 15.8074 12.3875 14.9644C13.4443 14.1214 14.6774 13.5272 15.9953 13.2261C17.3132 12.925 18.682 12.9246 20 13.225V20H26.775C27.0565 21.2352 27.0741 22.5158 26.8266 23.7582C26.5791 25.0006 26.0721 26.1767 25.3388 27.2097C24.6055 28.2426 23.6624 29.1092 22.5712 29.7526C21.4799 30.396 20.2652 30.8018 19.0063 30.9434C17.7475 31.0851 16.4729 30.9594 15.266 30.5746C14.059 30.1897 12.9469 29.5544 12.0024 28.7102C11.0579 27.8661 10.3022 26.832 9.78486 25.6757C9.26747 24.5193 9.00002 23.2668 9 22ZM24.804 22H18V15.196C16.6543 15.196 15.3388 15.5951 14.2199 16.3427C13.101 17.0903 12.2289 18.153 11.7139 19.3963C11.1989 20.6395 11.0642 22.0076 11.3267 23.3274C11.5893 24.6473 12.2373 25.8596 13.1888 26.8112C14.1404 27.7627 15.3528 28.4108 16.6726 28.6733C17.9925 28.9358 19.3605 28.8011 20.6038 28.2861C21.847 27.7711 22.9097 26.899 23.6573 25.7801C24.405 24.6612 24.804 23.3457 24.804 22Z" fill="white"/>
</svg>
