<svg width="40" height="40" viewBox="0 0 40 40" fill="none" xmlns="http://www.w3.org/2000/svg">
<rect x="0.5" y="0.5" width="39" height="39" rx="7.5" stroke="white"/>
<path d="M23 10.5V12C23 13.414 23 14.121 23.44 14.56C23.878 15 24.585 15 26 15H27.5" stroke="white" stroke-width="1.5" stroke-linecap="round" stroke-linejoin="round"/>
<path d="M16 19H24M16 22H24M16 25H20.17M12 24V16C12 13.172 12 11.757 12.879 10.879C13.757 10 15.172 10 18 10H22.172C22.58 10 22.785 10 22.969 10.076C23.152 10.152 23.297 10.296 23.586 10.586L27.414 14.414C27.704 14.704 27.848 14.848 27.924 15.032C28 15.215 28 15.42 28 15.828V24C28 26.828 28 28.243 27.121 29.121C26.243 30 24.828 30 22 30H18C15.172 30 13.757 30 12.879 29.121C12 28.243 12 26.828 12 24Z" stroke="white" stroke-width="1.5" stroke-linecap="round" stroke-linejoin="round"/>
</svg>
